<?xml version="1.0" standalone="no"?>
<!DOCTYPE svg PUBLIC "-//W3C//DTD SVG 20010904//EN"
 "http://www.w3.org/TR/2001/REC-SVG-20010904/DTD/svg10.dtd">
<svg version="1.0" xmlns="http://www.w3.org/2000/svg"
 width="512.000000pt" height="512.000000pt" viewBox="0 0 512.000000 512.000000"
 preserveAspectRatio="xMidYMid meet">
<metadata>
Created by potrace 1.16, written by Peter Selinger 2001-2019
</metadata>
<g transform="translate(0.000000,512.000000) scale(0.100000,-0.100000)"
fill="#000000" stroke="none">
<path d="M1280 4651 c-86 -26 -165 -93 -208 -176 -23 -43 -27 -62 -27 -140 0
-78 4 -97 28 -147 96 -195 354 -244 520 -99 20 18 51 63 69 99 29 59 33 76 33
147 0 67 -5 89 -28 136 -56 116 -174 190 -300 188 -34 0 -73 -4 -87 -8z"/>
<path d="M4115 3762 l-590 -327 -321 -5 c-304 -5 -323 -6 -344 -25 -35 -31
-50 -78 -50 -156 0 -83 17 -127 59 -152 26 -15 67 -17 378 -17 l348 0 290 168
c160 92 422 244 584 337 216 125 299 178 313 200 15 25 18 51 18 148 0 104 -2
119 -20 137 -11 11 -32 20 -47 20 -18 0 -247 -122 -618 -328z"/>
<path d="M1542 3813 c-12 -2 -37 -19 -56 -37 -57 -53 -56 -75 14 -337 34 -128
68 -242 76 -254 8 -12 29 -30 47 -39 29 -16 68 -17 394 -14 l362 3 31 30 c59
57 59 143 -1 201 l-30 29 -293 3 -293 3 -44 167 c-49 185 -71 223 -137 242
-20 5 -39 9 -42 9 -3 -1 -15 -4 -28 -6z"/>
<path d="M1221 3738 c-91 -11 -122 -26 -146 -71 -19 -36 -19 -36 38 -519 32
-266 60 -495 63 -510 3 -17 103 -135 269 -320 l264 -293 1 -357 0 -358 325 0
c254 0 325 3 325 13 0 59 -54 133 -122 168 -44 22 -149 49 -195 49 -18 0 -33
3 -33 8 0 4 32 129 71 278 l71 271 -151 262 -151 261 0 205 0 205 -107 0
c-116 0 -171 16 -221 63 -41 37 -59 86 -122 327 -48 182 -61 244 -58 282 6 55
13 53 -121 36z"/>
<path d="M4053 3229 c-252 -144 -263 -152 -272 -187 -6 -20 -109 -406 -230
-857 -121 -451 -223 -832 -226 -847 -7 -27 -6 -28 37 -28 42 0 47 4 143 101
55 55 116 109 136 119 20 11 70 22 112 26 58 5 78 11 81 23 3 9 107 396 231
861 125 465 232 866 240 893 8 26 13 47 12 47 -1 0 -120 -68 -264 -151z"/>
<path d="M1190 2433 c0 -10 5 -91 11 -181 7 -89 10 -165 7 -167 -2 -2 -157
-36 -343 -76 -187 -39 -348 -75 -358 -81 -10 -5 -22 -20 -27 -32 -8 -22 4
-356 15 -404 3 -13 20 -29 39 -39 33 -15 35 -15 86 13 64 35 118 98 141 167
l17 52 209 37 c114 20 250 45 301 54 l94 17 85 128 85 127 -181 201 c-103 115
-181 194 -181 184z"/>
<path d="M3705 1449 c-16 -5 -75 -54 -135 -113 -58 -58 -118 -110 -133 -115
-19 -8 -479 -11 -1443 -11 -1531 0 -1451 3 -1486 -52 -8 -13 -54 -126 -102
-252 -72 -185 -87 -235 -82 -264 9 -59 45 -85 172 -126 100 -33 119 -36 148
-26 50 16 64 38 104 156 28 83 44 112 65 128 l28 21 1710 5 1709 5 30 30 c29
29 33 45 75 263 27 140 42 245 38 263 -8 39 -53 85 -94 93 -48 9 -570 6 -604
-5z"/>
<path d="M2790 624 c0 -85 15 -121 60 -148 25 -14 86 -16 565 -16 588 0 578
-1 610 60 9 18 15 57 15 105 l0 75 -625 0 -625 0 0 -76z"/>
</g>
</svg>
