<?xml version="1.0" standalone="no"?>
<!DOCTYPE svg PUBLIC "-//W3C//DTD SVG 20010904//EN"
 "http://www.w3.org/TR/2001/REC-SVG-20010904/DTD/svg10.dtd">
<svg version="1.0" xmlns="http://www.w3.org/2000/svg"
 width="512.000000pt" height="512.000000pt" viewBox="0 0 512.000000 512.000000"
 preserveAspectRatio="xMidYMid meet">
<metadata>
Created by potrace 1.16, written by Peter Selinger 2001-2019
</metadata>
<g transform="translate(0.000000,512.000000) scale(0.100000,-0.100000)"
fill="#000000" stroke="none">
<path d="M1342 4970 c-215 -27 -446 -117 -644 -249 -596 -399 -849 -1199 -603
-1912 46 -131 143 -328 252 -511 398 -669 1037 -1340 1893 -1988 202 -153 233
-170 310 -177 78 -7 118 12 292 143 899 675 1558 1371 1964 2076 228 394 313
673 314 1022 1 810 -564 1488 -1329 1597 -124 17 -331 6 -456 -25 -251 -62
-485 -193 -687 -385 l-88 -83 -78 73 c-221 212 -484 352 -755 404 -102 20
-288 27 -385 15z m754 -1359 c23 -10 52 -34 66 -52 14 -19 107 -206 208 -417
101 -211 187 -385 191 -387 3 -3 57 57 120 132 63 76 130 146 149 158 32 18
55 20 285 23 l251 4 28 53 c83 160 278 258 451 228 197 -34 342 -178 375 -374
15 -91 2 -170 -45 -265 -88 -180 -297 -279 -494 -233 -117 27 -245 126 -292
227 l-24 51 -200 0 -200 1 -145 -181 c-80 -100 -158 -192 -173 -205 -40 -34
-98 -47 -148 -34 -78 21 -97 50 -284 434 -165 339 -175 357 -185 330 -101
-273 -124 -310 -207 -334 -26 -8 -172 -10 -460 -8 -408 3 -422 4 -449 24 -91
68 -96 185 -11 248 27 20 44 21 409 26 l380 5 93 243 c51 133 101 252 111 264
25 28 92 58 129 58 17 0 49 -9 71 -19z"/>
</g>
</svg>
