<?xml version="1.0" standalone="no"?>
<!DOCTYPE svg PUBLIC "-//W3C//DTD SVG 20010904//EN"
 "http://www.w3.org/TR/2001/REC-SVG-20010904/DTD/svg10.dtd">
<svg version="1.0" xmlns="http://www.w3.org/2000/svg"
 width="256.000000pt" height="256.000000pt" viewBox="0 0 256.000000 256.000000"
 preserveAspectRatio="xMidYMid meet">
<metadata>
Created by potrace 1.16, written by Peter Selinger 2001-2019
</metadata>
<g transform="translate(0.000000,256.000000) scale(0.100000,-0.100000)"
fill="#000000" stroke="none">
<path d="M1369 2545 c-48 -8 -185 -39 -304 -69 -240 -61 -260 -70 -388 -182
-131 -114 -255 -296 -431 -630 -126 -240 -153 -318 -201 -569 -46 -244 -50
-400 -15 -645 5 -36 10 -109 10 -164 l0 -99 36 -33 c23 -23 59 -41 107 -56 77
-23 116 -25 267 -13 89 7 101 5 191 -24 110 -36 262 -61 364 -61 243 1 528 71
796 196 122 57 164 65 222 41 46 -20 105 -89 138 -163 l29 -64 185 0 185 0 0
655 0 654 -37 8 c-21 4 -90 8 -153 7 -200 -1 -326 -49 -527 -200 -72 -54 -138
-96 -157 -99 -23 -5 -63 4 -142 31 -105 37 -114 38 -244 38 -114 1 -147 -3
-210 -23 -101 -32 -183 -74 -236 -123 -41 -38 -46 -39 -75 -29 -18 6 -44 11
-59 11 l-26 0 25 73 c27 78 29 134 21 527 -3 133 0 168 19 245 37 150 94 226
187 245 62 13 120 1 168 -34 48 -36 91 -46 195 -46 53 0 135 -5 181 -11 115
-16 131 -14 215 25 59 27 73 39 79 62 6 23 3 32 -14 46 -14 12 -17 18 -8 18 7
0 29 13 47 28 l33 28 -108 199 c-59 110 -109 202 -111 204 -8 11 -177 9 -254
-4z"/>
</g>
</svg>
