<?xml version="1.0" standalone="no"?>
<!DOCTYPE svg PUBLIC "-//W3C//DTD SVG 20010904//EN"
 "http://www.w3.org/TR/2001/REC-SVG-20010904/DTD/svg10.dtd">
<svg version="1.0" xmlns="http://www.w3.org/2000/svg"
 width="512.000000pt" height="512.000000pt" viewBox="0 0 512.000000 512.000000"
 preserveAspectRatio="xMidYMid meet">
<metadata>
Created by potrace 1.16, written by Peter Selinger 2001-2019
</metadata>
<g transform="translate(0.000000,512.000000) scale(0.100000,-0.100000)"
fill="#000000" stroke="none">
<path d="M2665 4789 c-322 -41 -626 -245 -802 -539 -277 -459 -159 -1103 261
-1437 106 -84 290 -175 421 -209 136 -35 331 -43 468 -20 117 20 247 64 346
118 58 32 76 37 82 27 36 -60 221 -288 248 -306 72 -49 175 -23 228 56 l23 34
0 642 c0 713 -2 735 -64 910 -60 166 -150 302 -285 426 -247 229 -592 340
-926 298z m-216 -1055 c35 -45 26 -95 -20 -120 -55 -28 -109 8 -109 73 0 70
87 101 129 47z m428 4 c41 -38 28 -105 -26 -127 -75 -31 -136 66 -79 126 28
30 74 30 105 1z m433 2 c20 -20 24 -36 20 -75 -5 -45 -62 -75 -103 -54 -50 27
-61 78 -26 123 26 33 79 36 109 6z"/>
<path d="M1653 4324 c-95 -54 -213 -159 -285 -253 -62 -83 -131 -222 -160
-326 -22 -78 -22 -95 -26 -654 -2 -408 0 -582 8 -602 28 -67 110 -108 180 -89
43 11 83 53 180 183 40 53 74 97 75 97 1 0 45 -20 97 -45 117 -55 232 -84 370
-92 151 -8 158 -3 62 57 -222 136 -411 361 -509 603 -145 359 -120 778 65
1100 21 37 35 67 32 67 -4 0 -44 -21 -89 -46z"/>
<path d="M1184 2195 c-140 -30 -252 -122 -319 -263 -36 -76 -48 -145 -43 -246
7 -126 43 -204 136 -295 99 -97 199 -140 326 -141 185 -1 365 112 444 278 32
67 37 88 40 170 7 160 -40 277 -155 384 -116 107 -270 148 -429 113z"/>
<path d="M3670 2177 c-200 -68 -320 -235 -320 -447 0 -233 148 -417 375 -465
87 -18 113 -18 198 0 99 21 170 57 236 120 95 91 141 201 142 340 2 222 -135
405 -345 461 -80 21 -209 18 -286 -9z"/>
<path d="M740 1249 c-107 -68 -209 -181 -263 -290 -52 -107 -67 -169 -67 -274
0 -123 49 -220 149 -295 94 -71 101 -71 761 -68 l585 3 61 28 c253 117 285
450 70 724 -29 37 -73 84 -97 103 -64 52 -152 110 -168 110 -7 0 -35 -20 -61
-43 -57 -52 -161 -108 -245 -133 -43 -13 -93 -18 -175 -18 -99 0 -126 4 -195
28 -88 30 -156 68 -226 127 -26 22 -51 39 -55 39 -5 0 -38 -19 -74 -41z"/>
<path d="M3266 1244 c-139 -93 -247 -229 -297 -374 -18 -52 -23 -87 -23 -175
-1 -105 1 -113 31 -170 40 -77 102 -137 178 -172 l60 -28 589 -3 c656 -3 653
-3 753 64 97 66 153 177 153 305 0 95 -16 161 -60 254 -63 132 -182 258 -305
325 l-44 24 -48 -41 c-159 -133 -364 -189 -553 -149 -95 20 -223 83 -288 141
-27 25 -56 45 -64 45 -7 0 -44 -21 -82 -46z"/>
</g>
</svg>
