<?xml version="1.0" standalone="no"?>
<!DOCTYPE svg PUBLIC "-//W3C//DTD SVG 20010904//EN"
 "http://www.w3.org/TR/2001/REC-SVG-20010904/DTD/svg10.dtd">
<svg version="1.0" xmlns="http://www.w3.org/2000/svg"
 width="256.000000pt" height="256.000000pt" viewBox="0 0 256.000000 256.000000"
 preserveAspectRatio="xMidYMid meet">
<metadata>
Created by potrace 1.16, written by Peter Selinger 2001-2019
</metadata>
<g transform="translate(0.000000,256.000000) scale(0.100000,-0.100000)"
fill="#000000" stroke="none">
<path d="M887 2381 c-235 -123 -400 -216 -409 -231 -19 -33 -330 -1260 -335
-1320 -9 -106 15 -149 156 -277 143 -129 203 -171 345 -238 177 -84 318 -115
520 -115 181 0 309 27 493 102 l73 30 67 -51 c111 -83 251 -142 380 -161 77
-11 187 -13 221 -4 l22 6 0 643 0 644 -56 20 c-30 12 -76 26 -102 32 -74 17
-228 15 -313 -4 -122 -28 -276 -114 -337 -188 l-23 -28 69 -68 c56 -55 78 -87
115 -163 66 -139 87 -250 50 -264 -25 -10 -34 5 -48 82 -54 280 -290 475 -575
473 -116 -1 -193 -25 -327 -102 -32 -18 -45 -21 -54 -12 -10 10 -99 667 -99
734 0 32 17 41 57 30 40 -11 103 6 134 35 35 33 65 31 84 -6 29 -55 70 -64
123 -24 l34 27 -61 61 c-65 66 -70 76 -45 96 13 12 25 4 83 -54 l69 -68 31 23
c17 12 31 25 31 29 0 3 -25 30 -55 60 -56 55 -68 86 -39 97 11 4 36 -14 78
-56 34 -33 65 -61 70 -61 15 0 35 34 36 59 0 17 -31 56 -112 138 -117 119
-149 143 -193 143 -14 0 -85 -31 -158 -69z"/>
<path d="M2157 2316 l-78 -111 28 -5 28 -5 3 -258 2 -257 93 2 92 3 5 255 c3
140 7 256 8 257 1 1 13 3 27 5 25 3 24 6 -52 114 l-78 111 -78 -111z"/>
<path d="M1579 1983 c-68 -97 -74 -108 -55 -111 42 -7 46 -19 46 -143 l0 -119
95 0 94 0 3 127 3 128 26 5 c26 5 26 5 -48 110 -41 58 -78 106 -81 108 -4 1
-41 -46 -83 -105z"/>
</g>
</svg>
