<?xml version="1.0" standalone="no"?>
<!DOCTYPE svg PUBLIC "-//W3C//DTD SVG 20010904//EN"
 "http://www.w3.org/TR/2001/REC-SVG-20010904/DTD/svg10.dtd">
<svg version="1.0" xmlns="http://www.w3.org/2000/svg"
 width="512.000000pt" height="512.000000pt" viewBox="0 0 512.000000 512.000000"
 preserveAspectRatio="xMidYMid meet">
<metadata>
Created by potrace 1.16, written by Peter Selinger 2001-2019
</metadata>
<g transform="translate(0.000000,512.000000) scale(0.100000,-0.100000)"
fill="#000000" stroke="none">
<path d="M1795 5111 c-12 -5 -27 -17 -35 -26 -8 -10 -259 -464 -557 -1009
l-543 -990 0 -648 0 -647 23 -26 c43 -50 126 -49 166 1 20 25 21 40 21 240 l0
213 378 3 c425 3 421 3 443 77 10 33 9 45 -7 77 -11 22 -30 44 -44 51 -19 10
-121 13 -397 13 l-373 0 1 293 0 292 513 935 513 935 162 3 161 2 0 -193 0
-194 -81 -6 c-133 -9 -213 -60 -263 -167 -21 -45 -21 -51 -21 -1045 l0 -1000
28 -57 c49 -101 126 -148 254 -156 l83 -5 0 -253 0 -254 -172 0 c-113 0 -197
-5 -243 -15 -205 -43 -370 -196 -431 -400 -14 -45 -18 -95 -19 -203 0 -139 1
-144 24 -163 22 -18 44 -19 432 -19 l409 0 0 -275 0 -275 -707 0 c-441 0 -722
-4 -744 -10 -49 -14 -70 -40 -76 -94 -5 -42 -3 -48 30 -81 l35 -35 1801 0
1801 0 30 28 c64 56 43 159 -37 181 -25 7 -280 11 -745 11 l-708 0 0 275 0
275 409 0 c388 0 410 1 432 19 23 19 24 24 24 163 -1 108 -5 158 -19 203 -61
204 -226 357 -431 400 -46 10 -130 15 -242 15 l-173 0 0 254 0 253 83 5 c128
8 205 55 254 156 l28 57 0 1000 0 1000 -28 57 c-49 99 -127 146 -258 155 l-79
6 0 194 0 194 142 -3 142 -3 532 -935 533 -935 0 -292 1 -293 -372 0 c-277 0
-379 -3 -398 -13 -14 -7 -33 -29 -44 -51 -16 -32 -17 -44 -7 -77 22 -74 18
-74 443 -77 l378 -3 0 -214 c0 -208 1 -215 23 -240 43 -50 126 -49 166 1 21
26 21 35 21 671 0 460 -3 651 -11 666 -68 131 -1118 1968 -1136 1987 l-23 25
-738 2 c-405 1 -746 -2 -757 -6z m595 -1121 c61 -44 60 -30 60 -697 0 -573 -1
-610 -19 -643 -55 -105 -209 -109 -271 -8 -19 32 -20 52 -20 654 l0 621 23 34
c47 71 155 90 227 39z m510 12 c19 -9 45 -32 57 -51 l23 -34 0 -616 c0 -567
-1 -619 -18 -651 -54 -108 -216 -108 -274 0 -17 33 -18 66 -16 657 3 611 3
622 24 650 27 37 80 63 129 63 22 0 56 -8 75 -18z"/>
<path d="M2219 3941 l-29 -29 0 -615 c0 -605 0 -615 21 -641 40 -50 123 -51
167 -1 l22 26 0 615 0 616 -29 29 c-24 24 -38 29 -76 29 -38 0 -52 -5 -76 -29z"/>
<path d="M2749 3941 l-29 -29 0 -615 c0 -605 0 -615 21 -641 40 -50 123 -51
167 -1 l22 26 0 615 0 616 -29 29 c-24 24 -38 29 -76 29 -38 0 -52 -5 -76 -29z"/>
</g>
</svg>
