<?xml version="1.0" standalone="no"?>
<!DOCTYPE svg PUBLIC "-//W3C//DTD SVG 20010904//EN"
 "http://www.w3.org/TR/2001/REC-SVG-20010904/DTD/svg10.dtd">
<svg version="1.0" xmlns="http://www.w3.org/2000/svg"
 width="512.000000pt" height="512.000000pt" viewBox="0 0 512.000000 512.000000"
 preserveAspectRatio="xMidYMid meet">
<metadata>
Created by potrace 1.16, written by Peter Selinger 2001-2019
</metadata>
<g transform="translate(0.000000,512.000000) scale(0.100000,-0.100000)"
fill="#000000" stroke="none">
<path d="M1617 4996 c-90 -33 -163 -108 -187 -196 -6 -20 -10 -210 -10 -452
l0 -418 -662 0 c-640 0 -664 -1 -695 -20 -58 -35 -63 -57 -63 -277 0 -179 2
-201 20 -230 41 -68 -180 -63 2540 -63 2720 0 2499 -5 2540 63 18 29 20 51 20
232 0 181 -2 203 -20 232 -39 65 -16 63 -684 63 l-605 0 -3 428 c-3 426 -3
427 -27 480 -14 31 -43 70 -72 96 -90 81 -24 76 -1098 76 -778 -1 -963 -3
-994 -14z m493 -319 c38 -19 45 -27 48 -55 6 -63 -28 -76 -124 -45 -45 14 -59
14 -98 3 -119 -33 -164 -184 -85 -284 66 -84 215 -76 277 15 l23 34 -94 5
c-104 6 -127 16 -127 61 0 53 17 59 172 59 167 0 178 -5 178 -79 -1 -60 -28
-119 -85 -180 -137 -146 -370 -117 -469 59 -28 50 -31 63 -31 140 0 73 4 92
27 136 75 142 248 201 388 131z m516 -59 c31 -46 60 -87 64 -91 4 -5 22 16 41
45 80 126 138 159 175 103 21 -32 17 -41 -74 -171 l-70 -99 -4 -127 c-3 -139
-12 -160 -62 -160 -51 0 -56 14 -56 147 l0 123 -76 108 c-98 140 -101 147 -80
179 12 19 25 25 50 25 32 0 39 -7 92 -82z m638 0 l59 -78 30 43 c81 113 137
144 171 95 14 -19 16 -62 16 -269 0 -223 -2 -249 -18 -269 -22 -28 -70 -30
-89 -4 -9 13 -13 60 -13 173 l0 156 -36 -42 c-46 -55 -70 -55 -118 -3 l-36 40
0 -154 c0 -170 -5 -186 -60 -186 -59 0 -60 6 -60 287 0 227 2 259 17 275 11
12 27 18 47 16 25 -2 42 -18 90 -80z"/>
<path d="M230 3110 l0 -130 600 0 c587 0 600 0 620 -20 19 -19 20 -33 20 -230
0 -197 -1 -211 -20 -230 -20 -20 -33 -20 -620 -20 l-600 0 0 -105 0 -105 598
0 c501 0 601 -2 618 -14 18 -13 19 -30 22 -226 3 -180 1 -215 -13 -236 l-15
-24 -605 0 -605 0 0 -105 0 -105 598 0 c501 0 601 -2 618 -14 18 -13 19 -30
22 -226 3 -180 1 -215 -13 -236 l-15 -24 -605 0 -605 0 0 -130 0 -130 855 0
855 0 0 673 c0 566 2 676 14 693 14 18 32 19 626 19 594 0 612 -1 626 -19 12
-17 14 -127 14 -693 l0 -673 855 0 855 0 0 130 0 130 -604 0 c-549 0 -605 1
-617 17 -11 12 -15 64 -17 211 -2 108 -1 206 2 218 15 56 -14 54 637 54 l599
0 0 105 0 105 -604 0 c-549 0 -605 1 -617 17 -11 12 -14 64 -14 235 0 206 1
221 19 234 17 12 117 14 618 14 l598 0 0 105 0 105 -598 0 c-501 0 -601 2
-618 14 -18 14 -19 28 -19 236 0 208 1 222 19 236 17 12 117 14 618 14 l598 0
0 130 0 130 -2350 0 -2350 0 0 -130z"/>
<path d="M230 2730 l0 -130 560 0 560 0 0 130 0 130 -560 0 -560 0 0 -130z"/>
<path d="M3810 2730 l0 -130 560 0 560 0 0 130 0 130 -560 0 -560 0 0 -130z"/>
<path d="M230 2020 l0 -130 560 0 560 0 0 130 0 130 -560 0 -560 0 0 -130z"/>
<path d="M3810 2020 l0 -130 560 0 560 0 0 130 0 130 -560 0 -560 0 0 -130z"/>
<path d="M2060 1435 l0 -635 230 0 230 0 0 635 0 635 -230 0 -230 0 0 -635z"/>
<path d="M2640 1435 l0 -635 230 0 230 0 0 635 0 635 -230 0 -230 0 0 -635z"/>
<path d="M230 1310 l0 -130 560 0 560 0 0 130 0 130 -560 0 -560 0 0 -130z"/>
<path d="M3810 1310 l0 -130 560 0 560 0 0 130 0 130 -560 0 -560 0 0 -130z"/>
<path d="M73 685 c-18 -8 -42 -29 -53 -47 -18 -30 -20 -50 -20 -231 0 -220 5
-242 63 -277 32 -20 70 -20 2497 -20 1952 0 2470 3 2490 13 13 7 35 28 47 46
22 32 23 42 23 230 0 222 -7 252 -70 283 -33 17 -172 18 -2490 18 -2085 -1
-2460 -3 -2487 -15z"/>
</g>
</svg>
