<?xml version="1.0" standalone="no"?>
<!DOCTYPE svg PUBLIC "-//W3C//DTD SVG 20010904//EN"
 "http://www.w3.org/TR/2001/REC-SVG-20010904/DTD/svg10.dtd">
<svg version="1.0" xmlns="http://www.w3.org/2000/svg"
 width="512.000000pt" height="512.000000pt" viewBox="0 0 512.000000 512.000000"
 preserveAspectRatio="xMidYMid meet">
<metadata>
Created by potrace 1.16, written by Peter Selinger 2001-2019
</metadata>
<g transform="translate(0.000000,512.000000) scale(0.100000,-0.100000)"
fill="#000000" stroke="none">
<path d="M3959 4150 c-55 -29 -95 -81 -108 -140 -15 -69 -15 -1908 -1 -1978
13 -60 60 -118 114 -143 31 -14 65 -19 137 -19 87 0 102 3 150 28 43 22 59 38
81 81 l28 54 -2 1003 -3 1002 -30 43 c-16 23 -50 53 -74 66 -38 20 -58 23
-150 23 -84 -1 -113 -5 -142 -20z"/>
<path d="M2940 3625 c-46 -21 -78 -51 -101 -97 -18 -36 -19 -69 -19 -773 0
-711 1 -737 20 -774 44 -88 107 -115 255 -109 96 3 107 6 146 33 23 17 53 50
66 74 l23 44 0 732 0 732 -23 44 c-13 24 -43 57 -66 74 -40 28 -48 30 -154 33
-85 2 -120 -2 -147 -13z"/>
<path d="M1927 3170 c-46 -14 -94 -56 -116 -103 -20 -42 -21 -56 -21 -544 l0
-500 23 -44 c13 -24 43 -57 66 -74 42 -29 45 -30 166 -30 121 0 124 1 167 30
23 17 53 49 65 70 23 40 23 40 23 550 0 510 0 510 -23 550 -12 21 -42 53 -65
70 -41 28 -49 30 -150 32 -59 1 -120 -2 -135 -7z"/>
<path d="M1974 1521 c-101 -26 -199 -112 -231 -202 l-18 -49 -496 0 -496 0
-21 -23 c-28 -30 -28 -68 1 -95 23 -22 24 -22 518 -22 l494 0 18 -49 c23 -67
95 -144 165 -178 75 -36 192 -39 264 -6 85 39 188 158 188 218 0 13 109 15
1013 15 l1014 0 21 23 c28 30 28 68 -1 95 l-23 22 -1012 0 c-903 0 -1012 2
-1012 15 0 59 -104 180 -185 216 -50 22 -154 32 -201 20z m127 -143 c81 -27
129 -93 129 -179 0 -99 -67 -172 -171 -186 -52 -7 -135 34 -168 82 -28 42 -38
118 -22 167 15 44 68 96 117 113 49 18 72 18 115 3z"/>
</g>
</svg>
