<?xml version="1.0" standalone="no"?>
<!DOCTYPE svg PUBLIC "-//W3C//DTD SVG 20010904//EN"
 "http://www.w3.org/TR/2001/REC-SVG-20010904/DTD/svg10.dtd">
<svg version="1.0" xmlns="http://www.w3.org/2000/svg"
 width="512.000000pt" height="512.000000pt" viewBox="0 0 512.000000 512.000000"
 preserveAspectRatio="xMidYMid meet">
<metadata>
Created by potrace 1.16, written by Peter Selinger 2001-2019
</metadata>
<g transform="translate(0.000000,512.000000) scale(0.100000,-0.100000)"
fill="#000000" stroke="none">
<path d="M1345 4891 c-299 -62 -568 -213 -811 -455 -267 -267 -439 -590 -511
-961 -23 -124 -23 -384 1 -520 49 -276 188 -590 381 -860 233 -326 697 -783
1195 -1176 280 -222 941 -709 960 -709 8 1 442 309 463 329 17 16 16 20 -12
82 -42 94 -79 218 -97 327 -21 129 -14 372 15 487 77 310 235 554 480 738 226
170 484 257 765 257 206 0 412 -47 584 -134 l69 -35 41 72 c174 305 266 661
248 960 -32 538 -336 1054 -806 1371 -349 235 -759 307 -1097 192 -172 -59
-287 -130 -497 -309 -81 -70 -151 -127 -155 -127 -4 0 -77 60 -164 133 -232
196 -368 274 -573 328 -116 30 -356 35 -479 10z"/>
<path d="M3991 2075 c-369 -80 -644 -348 -733 -712 -29 -123 -29 -304 1 -428
82 -338 336 -599 677 -697 108 -31 351 -33 464 -4 279 71 509 261 629 518 66
139 85 230 85 398 1 120 -3 159 -22 230 -99 363 -378 626 -740 696 -92 18
-276 17 -361 -1z m337 -332 c71 -35 90 -90 91 -264 l1 -86 131 -6 c141 -7 174
-17 211 -68 47 -62 47 -275 0 -338 -37 -50 -68 -60 -208 -67 l-131 -7 -6 -129
c-6 -138 -17 -172 -68 -210 -60 -45 -278 -45 -338 0 -49 36 -59 68 -67 208
l-7 131 -135 7 c-113 6 -141 10 -170 28 -54 33 -72 84 -72 208 0 124 18 175
73 208 29 19 56 23 169 29 l135 6 7 131 c10 173 33 214 136 236 66 14 205 4
248 -17z"/>
</g>
</svg>
