<?xml version="1.0" standalone="no"?>
<!DOCTYPE svg PUBLIC "-//W3C//DTD SVG 20010904//EN"
 "http://www.w3.org/TR/2001/REC-SVG-20010904/DTD/svg10.dtd">
<svg version="1.0" xmlns="http://www.w3.org/2000/svg"
 width="512.000000pt" height="512.000000pt" viewBox="0 0 512.000000 512.000000"
 preserveAspectRatio="xMidYMid meet">
<metadata>
Created by potrace 1.16, written by Peter Selinger 2001-2019
</metadata>
<g transform="translate(0.000000,512.000000) scale(0.100000,-0.100000)"
fill="#000000" stroke="none">
<path d="M470 4751 c-129 -40 -225 -147 -250 -280 -14 -74 -14 -3748 0 -3822
21 -112 88 -202 192 -256 l53 -28 1455 0 1455 0 53 28 c104 54 172 147 193
261 5 29 8 250 7 516 l-3 465 -105 0 -105 0 -5 -140 c-6 -155 -13 -179 -74
-233 -57 -50 -86 -54 -372 -50 l-261 3 -41 28 c-23 15 -54 46 -69 69 -27 40
-28 48 -31 184 l-4 142 -47 4 c-188 18 -330 209 -299 404 25 160 140 270 311
299 l37 6 0 127 c0 146 13 186 73 239 58 51 85 55 378 51 l266 -3 39 -27 c21
-15 50 -44 64 -65 23 -34 25 -46 28 -180 l3 -143 110 0 109 0 0 1034 c0 618
-4 1054 -10 1084 -21 113 -89 205 -192 259 l-53 28 -1440 2 c-792 1 -1451 -2
-1465 -6z m1122 -425 c36 -8 93 -27 125 -43 55 -27 167 -125 192 -168 11 -20
11 -20 23 -1 6 11 30 40 52 65 157 171 433 207 627 82 86 -55 161 -146 200
-242 34 -83 38 -255 10 -374 -26 -107 -98 -262 -171 -363 -140 -198 -406 -421
-653 -547 l-77 -40 -77 39 c-250 129 -524 360 -661 559 -71 103 -137 244 -162
347 -29 122 -27 273 4 361 43 123 135 226 250 283 111 54 201 66 318 42z m803
-1791 c30 -30 31 -54 4 -89 l-20 -26 -459 0 -459 0 -20 26 c-27 35 -26 59 4
89 l24 25 451 0 451 0 24 -25z m-213 -352 c28 -25 24 -77 -8 -102 -26 -21 -35
-21 -605 -21 -420 0 -585 3 -604 12 -40 18 -49 75 -18 111 15 16 57 17 616 17
545 0 602 -2 619 -17z m-2 -353 c24 -24 26 -77 3 -102 -15 -17 -48 -18 -618
-18 -561 0 -603 1 -618 18 -27 30 -26 73 3 102 20 20 33 20 615 20 582 0 595
0 615 -20z m2 -357 c25 -23 24 -77 -4 -103 -21 -20 -32 -20 -615 -20 -580 0
-593 0 -613 20 -29 29 -30 72 -3 103 15 16 57 17 616 17 545 0 602 -2 619 -17z"/>
<path d="M2725 2605 c-25 -24 -25 -26 -25 -215 l0 -190 -98 0 c-118 0 -169
-21 -217 -88 -39 -57 -47 -149 -17 -208 47 -91 111 -124 242 -124 l90 0 0
-190 c0 -189 0 -191 25 -215 l24 -25 234 0 c222 0 236 1 261 21 l26 20 0 195
0 194 355 0 355 0 0 -190 c0 -189 0 -191 25 -215 l24 -25 234 0 c222 0 236 1
261 21 l26 20 0 194 0 193 108 4 c98 3 112 6 150 30 110 74 129 227 38 326
-40 45 -76 57 -186 62 l-105 5 -3 190 c-3 257 23 235 -284 235 l-239 0 -24
-25 c-25 -24 -25 -26 -25 -215 l0 -190 -352 2 -353 3 -3 190 c-3 257 23 235
-284 235 l-239 0 -24 -25z m-25 -615 l0 -70 -82 0 c-70 0 -85 3 -105 22 -28
27 -30 67 -3 96 18 19 31 22 105 22 l85 0 0 -70z m1280 0 l0 -70 -355 0 -355
0 0 70 0 70 355 0 355 0 0 -70z m758 54 c29 -20 30 -76 2 -104 -17 -17 -33
-20 -105 -20 l-85 0 0 70 0 70 83 0 c59 0 89 -5 105 -16z"/>
</g>
</svg>
