<?xml version="1.0" standalone="no"?>
<!DOCTYPE svg PUBLIC "-//W3C//DTD SVG 20010904//EN"
 "http://www.w3.org/TR/2001/REC-SVG-20010904/DTD/svg10.dtd">
<svg version="1.0" xmlns="http://www.w3.org/2000/svg"
 width="512.000000pt" height="512.000000pt" viewBox="0 0 512.000000 512.000000"
 preserveAspectRatio="xMidYMid meet">
<metadata>
Created by potrace 1.16, written by Peter Selinger 2001-2019
</metadata>
<g transform="translate(0.000000,512.000000) scale(0.100000,-0.100000)"
fill="#000000" stroke="none">
<path d="M596 4079 c-112 -39 -187 -107 -240 -219 l-31 -65 -3 -262 -3 -263
2241 0 2241 0 -3 263 -3 262 -31 65 c-54 113 -128 181 -242 219 -61 21 -67 21
-1964 21 -1888 -1 -1903 -1 -1962 -21z m241 -341 c63 -59 -4 -157 -84 -123
-33 14 -43 32 -43 76 0 63 79 92 127 47z m722 -4 c27 -35 26 -66 -2 -100 -48
-56 -131 -23 -131 52 0 70 90 102 133 48z m710 9 c34 -29 37 -75 9 -108 -34
-38 -82 -39 -115 -1 -28 34 -29 65 -2 100 25 31 76 35 108 9z"/>
<path d="M322 2218 l3 -893 32 -67 c44 -93 100 -151 191 -196 l76 -37 1936 0
1936 0 76 37 c91 45 147 103 191 196 l32 67 3 893 3 892 -2241 0 -2241 0 3
-892z m2498 643 c110 -37 158 -63 257 -138 211 -160 339 -441 319 -705 -9
-125 -38 -228 -97 -348 -45 -91 -64 -116 -143 -195 -121 -119 -219 -176 -387
-222 -90 -25 -328 -25 -418 0 -165 45 -266 103 -382 217 -152 150 -229 324
-245 555 -25 351 202 697 541 824 110 42 171 51 320 47 127 -2 149 -6 235 -35z"/>
<path d="M2420 2726 c-289 -61 -485 -270 -531 -567 -52 -337 172 -669 511
-756 38 -9 104 -16 160 -16 170 0 331 61 453 173 213 196 278 472 177 752 -71
196 -238 347 -445 403 -83 22 -244 28 -325 11z m194 -130 c47 -20 69 -56 109
-181 l35 -110 134 -5 c83 -4 143 -11 161 -20 57 -28 85 -120 55 -185 -6 -14
-58 -60 -115 -101 -57 -41 -103 -81 -103 -88 0 -6 16 -59 35 -116 19 -57 35
-119 35 -138 0 -76 -74 -139 -152 -129 -28 4 -69 27 -143 81 l-105 75 -105
-75 c-74 -54 -115 -77 -143 -81 -78 -10 -152 53 -152 129 0 19 16 81 35 138
19 57 35 110 35 116 0 7 -46 47 -103 88 -109 79 -127 103 -127 166 0 54 17 87
59 113 31 19 54 23 169 27 l133 5 39 118 c41 126 57 152 105 173 39 17 68 17
109 0z"/>
<path d="M2531 2308 c-48 -151 -61 -161 -215 -168 l-111 -5 75 -54 c41 -30 83
-64 92 -75 28 -34 33 -83 13 -145 -10 -31 -24 -75 -31 -99 l-13 -44 52 38 c28
21 67 48 86 61 63 43 139 26 236 -51 73 -59 72 -66 20 95 -20 62 -15 111 13
144 9 11 51 45 92 75 l74 55 -110 5 c-154 7 -167 17 -215 168 -13 39 -26 72
-29 72 -3 0 -16 -33 -29 -72z"/>
</g>
</svg>
