<?xml version="1.0" standalone="no"?>
<!DOCTYPE svg PUBLIC "-//W3C//DTD SVG 20010904//EN"
 "http://www.w3.org/TR/2001/REC-SVG-20010904/DTD/svg10.dtd">
<svg version="1.0" xmlns="http://www.w3.org/2000/svg"
 width="512.000000pt" height="512.000000pt" viewBox="0 0 512.000000 512.000000"
 preserveAspectRatio="xMidYMid meet">
<metadata>
Created by potrace 1.16, written by Peter Selinger 2001-2019
</metadata>
<g transform="translate(0.000000,512.000000) scale(0.100000,-0.100000)"
fill="#000000" stroke="none">
<path d="M4210 4745 c-129 -35 -245 -68 -257 -74 -13 -6 -30 -25 -38 -43 -11
-25 -458 -1679 -549 -2035 -15 -55 -15 -67 -2 -97 33 -79 154 -88 192 -14 11
22 198 708 534 1969 l10 36 197 52 c109 29 211 60 226 68 92 47 49 206 -55
202 -13 0 -129 -29 -258 -64z"/>
<path d="M1019 4076 c-62 -22 -107 -64 -140 -132 -29 -58 -31 -71 -27 -132 6
-75 25 -120 72 -170 65 -70 112 -81 274 -67 l92 8 0 -510 0 -509 -45 -13
c-104 -31 -238 -149 -289 -254 -102 -211 -59 -450 112 -613 98 -94 210 -139
352 -139 207 0 373 104 467 293 36 72 38 74 67 68 17 -4 74 -14 128 -23 92
-15 96 -17 102 -44 6 -33 38 -53 73 -44 31 7 50 52 59 137 5 53 3 67 -11 81
-25 25 -71 22 -90 -7 l-16 -23 -77 14 c-42 7 -101 18 -129 24 l-53 10 0 42
c-1 212 -162 423 -367 484 l-63 18 0 518 c0 413 3 517 13 517 46 0 270 33 308
46 79 25 120 84 120 170 0 102 -53 161 -166 184 -54 10 -673 80 -709 80 -11
-1 -37 -7 -57 -14z"/>
<path d="M1082 3035 c-356 -122 -616 -420 -682 -785 -18 -100 -14 -293 9 -396
78 -359 311 -630 629 -734 71 -23 156 -39 317 -59 l220 -29 -615 -1 c-339 -1
-641 -5 -674 -11 -114 -18 -206 -87 -255 -190 -21 -45 -26 -70 -26 -135 0
-136 63 -238 183 -297 l67 -33 2305 0 2305 0 55 26 c80 37 125 81 162 157 29
58 33 76 33 147 0 97 -28 167 -94 232 -83 82 -160 103 -385 103 l-139 0 40 43
c138 149 223 433 194 645 -53 398 -354 666 -891 793 -69 16 -132 32 -140 34
-12 4 -19 -7 -28 -42 -29 -108 -122 -180 -221 -171 -133 13 -214 123 -189 259
5 28 8 53 6 54 -2 2 -183 47 -403 99 -220 53 -474 114 -565 136 -395 95 -672
160 -680 160 -6 0 -10 -76 -10 -192 l1 -193 79 -37 c47 -23 102 -59 137 -92
l59 -54 843 -232 844 -232 51 16 c77 24 135 29 200 17 177 -33 298 -154 327
-328 30 -182 -65 -364 -229 -441 -51 -24 -68 -27 -162 -26 -118 0 -162 14
-254 82 l-50 37 -871 76 c-842 73 -871 75 -905 58 -224 -109 -511 -58 -693
125 -196 195 -242 487 -115 729 43 82 173 212 256 255 l62 33 0 210 c0 241 10
224 -108 184z"/>
<path d="M3680 1937 c-136 -38 -223 -152 -224 -292 -2 -161 117 -290 278 -302
129 -11 237 50 292 165 23 47 28 71 28 137 1 68 -3 89 -27 137 -16 32 -46 73
-69 92 -70 60 -191 88 -278 63z"/>
</g>
</svg>
