<?xml version="1.0" standalone="no"?>
<!DOCTYPE svg PUBLIC "-//W3C//DTD SVG 20010904//EN"
 "http://www.w3.org/TR/2001/REC-SVG-20010904/DTD/svg10.dtd">
<svg version="1.0" xmlns="http://www.w3.org/2000/svg"
 width="512.000000pt" height="512.000000pt" viewBox="0 0 512.000000 512.000000"
 preserveAspectRatio="xMidYMid meet">
<metadata>
Created by potrace 1.16, written by Peter Selinger 2001-2019
</metadata>
<g transform="translate(0.000000,512.000000) scale(0.100000,-0.100000)"
fill="#000000" stroke="none">
<path d="M1617 4815 c-499 -167 -922 -312 -939 -322 -17 -10 -39 -34 -50 -53
-18 -34 -18 -72 -15 -1140 3 -981 5 -1118 20 -1220 104 -694 437 -1192 1091
-1630 265 -177 748 -438 826 -447 41 -4 58 2 195 73 535 276 829 472 1089 723
319 309 507 635 606 1046 64 267 63 242 67 1452 4 1096 4 1102 -17 1142 -11
23 -34 48 -53 57 -58 31 -1851 624 -1882 623 -16 0 -439 -137 -938 -304z
m1588 -545 c670 -223 668 -222 694 -293 15 -38 15 -1517 1 -1692 -45 -554
-244 -869 -790 -1249 -193 -134 -481 -315 -517 -325 -52 -15 -91 2 -280 125
-385 248 -564 384 -714 542 -200 210 -303 420 -360 732 -22 123 -23 142 -27
975 -2 576 0 861 7 885 22 76 21 75 697 300 346 116 636 210 644 210 8 0 298
-95 645 -210z"/>
<path d="M2473 3429 c-25 -16 -51 -57 -113 -180 -44 -87 -83 -159 -85 -159
-43 0 -345 -55 -364 -66 -49 -29 -66 -63 -66 -131 l0 -63 133 -133 133 -133
-29 -170 c-30 -175 -29 -211 3 -260 23 -35 99 -68 141 -61 18 3 101 42 184 86
l150 80 151 -80 c84 -45 166 -83 184 -86 46 -7 120 28 145 69 27 44 26 95 -6
274 l-25 147 124 126 c69 69 130 136 136 148 18 36 13 97 -11 133 -41 60 -62
68 -238 95 -91 14 -168 25 -172 25 -4 0 -44 72 -88 159 -64 127 -87 164 -114
180 -45 28 -129 28 -173 0z"/>
</g>
</svg>
